<svg xmlns="http://www.w3.org/2000/svg" viewBox="0 0 369.66666666666663 101.44443484772177" preserveAspectRatio="xMidYMid meet" class="css-88gl6m" id="ebcecfbd"><defs id="SvgjsDefs1742"/><g id="SvgjsG1743" featurekey="hmhgWD-0" transform="matrix(1.0482180293501049,0,0,1.0482180293501049,-7.861630221832724,7)" fill="#fff"><g xmlns="http://www.w3.org/2000/svg"><path fill="none" d="M35.5,75.7c-0.3-0.3-0.6-0.1-0.6,0.1c-0.2,0.4-0.2,0.4-1.6,3.3c-0.1,0.3-0.1,0.7,0.1,1c0.9,1,2,2.3,2.9,3.2   c0.3,0.3,0.5,0,0.5,0c0,0,0-0.1,0.1-0.1c0.4-1,1.1-2.3,1.6-3.2c0.2-0.5,0-0.8,0-0.9C37.6,77.8,36.5,76.8,35.5,75.7z"/><path fill="none" d="M16.1,44.5c-0.4-0.4-0.4-0.4-2.9,2.8c-0.2,0.3-0.2,0.6,0,0.9c0.8,1,2,2.2,2.9,3.2c0.3,0.3,0.6,0,0.6,0   c0,0,0.1-0.1,0.1-0.1c0.6-0.9,1.5-2,2.2-2.8c0.3-0.4,0.1-0.8,0.1-0.8C18.2,46.5,17.1,45.5,16.1,44.5z"/><path fill="none" d="M12.2,49.8c-0.3-0.3-0.5-0.1-0.6,0.1c-0.2,0.4-0.2,0.4-1.6,3.3c-0.1,0.3-0.1,0.7,0.1,1c0.8,1,2,2.2,2.9,3.2   c0.3,0.3,0.5,0,0.5-0.1c0,0,0-0.1,0.1-0.1c0.4-1,1.1-2.3,1.5-3.2c0.2-0.5,0-0.8,0-0.9C14.3,51.8,13.2,50.9,12.2,49.8z"/><path fill="none" d="M34.5,35.4c-0.8-1.2-1.9-2.1-2.9-3.2c-0.4-0.4-0.4-0.4-3.7,1.8c-0.3,0.2-0.3,0.5-0.1,0.7c0.8,1,2,2.2,2.9,3.2   c0.3,0.3,0.7,0.1,0.7,0.1c1.1-0.5,2-1.3,3-2C34.7,35.8,34.5,35.4,34.5,35.4z"/><path fill="none" d="M36,34.3c0.4,0.4,0.4,0.4,1.9-0.6l1.7-1.1c0.3-0.2,0.2-0.5,0.1-0.6c-0.9-1.2-1.9-2.1-2.9-3.2   c-0.4-0.4-0.4-0.4-2.6,1l-1,0.6c-0.3,0.2-0.3,0.5-0.1,0.7C34,32.1,35.1,33.4,36,34.3z"/><path fill="none" d="M26.1,35.8c-0.4-0.4-0.4-0.4-2.1,0.9l-1.5,1.2c-0.3,0.2-0.3,0.5-0.1,0.8v0c0.8,1,2,2.2,2.9,3.2   c0.4,0.4,0.4,0.4,2.4-1.1l1.3-0.9c0.4-0.3,0.2-0.7,0.2-0.7C28.2,37.8,27.1,36.9,26.1,35.8z"/><path fill="none" d="M20.9,39.8c-0.4-0.4-0.4-0.4-2.5,1.5l-0.9,0.8c-0.2,0.3-0.2,0.6,0,0.8v0c0.8,1,2,2.2,2.9,3.2   c0.4,0.4,0.4,0.3,1.6-0.9l1.7-1.6c0.4-0.4,0.2-0.7,0.1-0.7C22.9,41.9,21.8,40.9,20.9,39.8z"/><path fill="none" d="M41.2,31c0.4,0.4,0.4,0.4,2.1-0.8l1.2-0.8c0.3-0.2,0.2-0.5,0.1-0.6c-0.9-1.2-1.9-2.1-2.9-3.2   c-0.4-0.4-0.4-0.4-1.9,0.7l-1.3,0.9c-0.2,0.2-0.3,0.4-0.1,0.7C39.2,28.8,40.4,30.1,41.2,31z"/><path fill="none" d="M58.9,11.4c0.3,0.3,0.5,0.1,0.6,0c0.2-0.4,0.8-1.9,1.1-2.8c0.1-0.5,0.1-0.5-3.1-4c-0.3-0.3-0.5-0.1-0.5,0   c0,0,0,0.1-0.1,0.1c-0.3,0.8-0.7,1.9-1.1,2.7C55.7,7.7,55.8,8,56,8.2C56.8,9.2,58,10.4,58.9,11.4z"/><path fill="none" d="M45.8,27.8c0.5,0.4,0.5,0.5,4-2.8c0.3-0.3,0.2-0.7,0.1-0.8c-0.8-1.2-2-2.1-2.9-3.2c-0.3-0.3-0.7,0-0.7,0   c-0.1,0-0.1,0.1-0.2,0.2c-0.9,0.8-2.1,1.9-3,2.7c-0.3,0.3-0.4,0.6-0.2,0.8C43.7,25.6,44.9,26.9,45.8,27.8z"/><path fill="none" d="M55.7,16.9c0.4,0.4,0.4,0.4,1.7-1.8l0.7-1.3c0.2-0.3,0.1-0.7-0.1-0.9c-0.9-1.2-2-2.1-3-3.2   c-0.4-0.4-0.4-0.4-1.4,1.4c-0.3,0.5-0.7,1.2-1,1.6c-0.2,0.3-0.2,0.7,0,0.9C53.7,14.7,54.9,16,55.7,16.9z"/><path fill="none" d="M51.4,22.6c0.4,0.4,0.5,0.3,1.6-1c0.5-0.6,1.1-1.4,1.6-2c0.3-0.4,0.1-0.7,0-0.9c-0.8-1.2-2-2.1-2.9-3.2   c-0.4-0.3-0.4-0.3-2.3,2.1l-0.8,0.9c-0.2,0.3-0.3,0.6-0.1,0.9C49.3,20.4,50.5,21.6,51.4,22.6z"/><path fill="none" d="M49.6,61.6c-0.4-0.4-0.4-0.4-2.1,0.9l-1.5,1.2c-0.3,0.2-0.3,0.5-0.1,0.8c0.9,1,2.1,2.3,2.9,3.2   c0.4,0.4,0.4,0.4,2.4-1.1l1.3-1c0.3-0.2,0.3-0.5,0.1-0.7C51.7,63.6,50.6,62.7,49.6,61.6z"/><path fill="none" d="M70.5,46.6c-0.3-0.3-0.7,0-0.8,0c-0.1,0-0.1,0.1-0.2,0.2c-0.9,0.8-2.1,1.9-3,2.7c-0.3,0.3-0.4,0.6-0.1,0.8v0   c0.9,1,2.1,2.2,3,3.2c0.5,0.5,0.5,0.5,4-2.8c0.3-0.3,0.2-0.7,0.1-0.8C72.7,48.6,71.5,47.7,70.5,46.6z"/><path fill="none" d="M78.9,35.4c-0.4-0.4-0.4-0.4-1.4,1.4c-0.3,0.5-0.7,1.2-1,1.7c-0.2,0.3-0.2,0.7,0,0.9c0.9,1,2.1,2.2,3,3.2   c0.4,0.4,0.4,0.4,1.8-1.8l0.8-1.3c0.2-0.3,0.1-0.7-0.1-0.9C81.1,37.4,79.9,36.4,78.9,35.4z"/><path fill="none" d="M39.5,70.4c-0.4-0.4-0.4-0.4-2.9,2.8c-0.2,0.3-0.2,0.6,0,0.9v0c0.9,1,2,2.3,2.9,3.2c0.3,0.3,0.6,0,0.6,0   c0,0,0.1-0.1,0.1-0.1c0.6-0.9,1.5-2,2.2-2.8c0.3-0.4,0.1-0.8,0.1-0.8C41.6,72.4,40.5,71.5,39.5,70.4z"/><path fill="none" d="M80.8,30c0,0,0,0.1-0.1,0.1c-0.3,0.8-0.8,1.9-1.1,2.7c-0.1,0.3-0.1,0.6,0.1,0.9v0c0.9,1,2.1,2.2,3,3.2   c0.3,0.3,0.5,0.1,0.6,0c0.2-0.3,0.9-1.9,1.2-2.8c0.1-0.5,0.1-0.5-3.2-4C81,29.8,80.8,30,80.8,30z"/><path fill="none" d="M75.3,41.1c-0.4-0.4-0.4-0.4-2.3,2.1l-0.8,1c-0.2,0.3-0.3,0.6-0.1,0.9c0.9,1,2.1,2.2,3,3.2   c0.4,0.4,0.5,0.3,1.6-1c0.5-0.6,1.1-1.4,1.6-2c0.3-0.4,0.1-0.7,0-0.9C77.4,43.1,76.3,42.1,75.3,41.1z"/><path fill="none" d="M55,57.9c-0.4-0.4-0.4-0.4-3.8,1.8c-0.3,0.2-0.3,0.5-0.1,0.7c0.9,1,2.1,2.3,2.9,3.2c0.3,0.3,0.8,0.1,0.8,0.1   c1.1-0.5,2-1.3,3-2c0.4-0.3,0.2-0.6,0.1-0.7C57.2,60,56,59,55,57.9z"/><path fill="none" d="M44.3,65.7c-0.4-0.4-0.4-0.4-2.6,1.6l-0.9,0.8c-0.2,0.3-0.2,0.6,0,0.8c0.9,1,2.1,2.3,2.9,3.2   c0.4,0.4,0.4,0.3,1.6-0.9l1.7-1.6c0.3-0.3,0.2-0.6,0.1-0.8C46.4,67.8,45.3,66.8,44.3,65.7z"/><path fill="none" d="M65.2,51.2c-0.4-0.4-0.4-0.4-1.9,0.7l-1.3,0.9c-0.2,0.2-0.3,0.5-0.1,0.7c0.9,1,2.1,2.2,2.9,3.2   c0.4,0.4,0.4,0.4,2.1-0.8l1.2-0.8c0.3-0.3,0.1-0.6,0.1-0.7C67.3,53.3,66.2,52.3,65.2,51.2z"/><path fill="none" d="M60.3,54.5c-0.4-0.4-0.4-0.4-2.6,1l-1,0.7c-0.3,0.2-0.3,0.5-0.1,0.7c0.9,1,2.1,2.3,2.9,3.2   c0.4,0.4,0.4,0.4,1.9-0.6l1.8-1.1c0.4-0.3,0.1-0.6,0.1-0.7C62.4,56.6,61.3,55.6,60.3,54.5z"/><path d="M85.3,31.9c-0.1,0.1-0.2,0.2-0.5,0c-0.9-1-2.1-2.2-3-3.2c-0.2-0.2-0.3-0.6-0.3-0.8c0.1-0.5,0.3-1.2,0.4-1.7L61.6,5   c-0.2,1-0.3,1.3-0.3,1.4c0,0.1-0.2,0.2-0.5,0c-0.9-0.9-2.1-2.2-2.9-3.1v0c-0.2-0.2-0.3-0.6-0.3-0.8c0.1-0.4,0.2-0.8,0.3-1.3L56.8,0   c-0.5,2.8-1.8,6.2-4,10.1c-1.3,2.2-2.4,3.8-4.5,6.4c-3.3,3.8-5.6,5.8-9.6,8.7c-2.5,1.7-2.5,1.7-5.4,3.5c-5.7,3.6-6.8,4.3-10.3,6.8   c-2.5,1.9-3.2,2.5-5.7,4.7c-5.1,5.2-8.2,9.4-9.8,17.1l1,1.1L9,56.1c0.1-0.1,0.3-0.2,0.4-0.3c0.9,1,2.1,2.3,3,3.3   c0.3,0.6,0.3,0.6-0.3,3.4c1.4,1.5,3.2,3.6,4.6,5.1c0.7,0.8,1.6,1.8,2.3,2.6c1.4,1.5,3.2,3.6,4.6,5.1c1.4,1.5,3.2,3.6,4.6,5.2   c1.1,1.2,2.5,2.8,3.5,4l0.6-2.4c0.1-0.1,0.3-0.2,0.4-0.3c0.9,1,2.2,2.3,3.1,3.4c0.3,0.6,0.3,0.6-0.4,3.4l1.3,1.5   c1.5-6.2,3.6-10.8,10.1-17.2c2.4-2.1,2.8-2.5,5.7-4.8c3.6-2.7,4.7-3.4,10.3-7c3.3-2.1,3.6-2.3,5.5-3.6c3-2.1,5.7-4.1,9.7-8.8   c1.7-2.1,2.8-3.5,4.6-6.4c2.5-4.3,3.9-7.8,4.4-10.7l-1.3-1.4C85.4,31.5,85.3,31.8,85.3,31.9z M55.8,7.4c0.3-0.8,0.8-1.9,1.1-2.7   c0,0,0-0.1,0.1-0.1c0,0,0.2-0.3,0.5,0c3.3,3.5,3.3,3.5,3.1,4c-0.4,0.9-0.9,2.5-1.1,2.8c-0.1,0.1-0.3,0.3-0.6,0   C58,10.4,56.8,9.2,56,8.2C55.8,8,55.7,7.7,55.8,7.4z M52.8,12.9c0.3-0.5,0.7-1.1,1-1.6c1-1.8,1-1.8,1.4-1.4c1,1.1,2.1,2,3,3.2   c0.1,0.2,0.2,0.5,0.1,0.9l-0.7,1.3c-1.3,2.1-1.3,2.1-1.7,1.8c-0.9-0.9-2.1-2.2-2.9-3.1C52.6,13.5,52.6,13.2,52.8,12.9z M48.5,18.6   l0.8-0.9c1.9-2.4,1.9-2.4,2.3-2.1c1,1.1,2.1,2,2.9,3.2c0.1,0.1,0.2,0.5,0,0.9c-0.5,0.6-1.1,1.4-1.6,2c-1.1,1.3-1.2,1.4-1.6,1   c-0.9-0.9-2.1-2.2-2.9-3.1C48.3,19.2,48.3,18.9,48.5,18.6z M43,23.8c0.9-0.8,2.1-1.8,3-2.7c0.1-0.1,0.1-0.1,0.2-0.2   c0,0,0.4-0.3,0.7,0c1,1.1,2.1,2,2.9,3.2c0.1,0.1,0.2,0.5-0.1,0.8c-3.5,3.2-3.5,3.2-4,2.8c-0.9-0.9-2.1-2.2-2.9-3.1   C42.7,24.4,42.7,24.1,43,23.8z M38.4,27.2l1.3-0.9c1.5-1.1,1.5-1.1,1.9-0.7c1,1.1,2.1,2,2.9,3.2c0.1,0.2,0.2,0.4-0.1,0.6l-1.2,0.8   c-1.7,1.2-1.7,1.2-2.1,0.8c-0.9-0.9-2-2.2-2.9-3.1C38.1,27.6,38.2,27.4,38.4,27.2z M33.2,30.5l1-0.6c2.2-1.4,2.2-1.4,2.6-1   c1,1.1,2.1,2,2.9,3.2c0.1,0.1,0.2,0.4-0.1,0.6l-1.7,1.1c-1.4,0.9-1.5,0.9-1.9,0.6c-0.9-0.9-2-2.2-2.9-3.2   C32.9,30.9,33,30.7,33.2,30.5z M15.2,53.9c-0.5,1-1.1,2.2-1.5,3.2c0,0,0,0.1-0.1,0.1c-0.1,0.1-0.2,0.3-0.5,0.1   c-0.9-1-2-2.2-2.9-3.2c-0.2-0.3-0.3-0.6-0.1-1c1.3-2.9,1.3-2.9,1.6-3.3c0.1-0.1,0.3-0.3,0.6-0.1c1,1.1,2,2,2.9,3.2   C15.2,53.1,15.4,53.4,15.2,53.9z M19,48.5c-0.7,0.8-1.5,1.9-2.2,2.8c0,0-0.1,0.1-0.1,0.1c0,0-0.3,0.3-0.6,0c-0.9-1-2-2.2-2.9-3.2   c-0.2-0.2-0.2-0.6,0-0.9c2.5-3.3,2.5-3.3,2.9-2.8c1,1.1,2.1,2,2.9,3.2C19.1,47.7,19.3,48.1,19,48.5z M23.7,43.8l-1.7,1.6   c-1.2,1.2-1.3,1.2-1.6,0.9c-0.9-1-2-2.2-2.9-3.2v0c-0.2-0.2-0.2-0.6,0-0.8l0.9-0.8c2.1-1.9,2.1-1.9,2.5-1.5c1,1.1,2.1,2,2.9,3.2   C23.8,43.1,24,43.4,23.7,43.8z M28.9,39.7l-1.3,0.9c-2,1.5-2,1.5-2.4,1.1c-0.9-1-2-2.2-2.9-3.2v0c-0.2-0.2-0.2-0.5,0.1-0.8l1.5-1.2   c1.7-1.3,1.7-1.3,2.1-0.9c1,1.1,2.1,2,2.9,3.2C29.1,39,29.3,39.4,28.9,39.7z M31.3,38c0,0-0.4,0.2-0.7-0.1c-0.9-0.9-2-2.2-2.9-3.2   c-0.2-0.2-0.1-0.5,0.1-0.7c3.3-2.2,3.3-2.2,3.7-1.8c1,1.1,2.1,2,2.9,3.2c0,0,0.3,0.4-0.1,0.7C33.3,36.7,32.4,37.5,31.3,38z    M38.5,79.9c-0.5,1-1.1,2.2-1.6,3.2c0,0,0,0.1-0.1,0.1c-0.1,0.1-0.3,0.3-0.5,0c-0.9-1-2.1-2.3-2.9-3.2c-0.2-0.3-0.3-0.6-0.1-1   c1.4-2.9,1.4-2.9,1.6-3.3c0.1-0.1,0.3-0.3,0.6-0.1c1,1.1,2.1,2.1,3,3.3C38.5,79.1,38.8,79.4,38.5,79.9z M42.4,74.5   c-0.7,0.8-1.6,1.9-2.2,2.8c0,0-0.1,0.1-0.1,0.1c0,0-0.3,0.3-0.6,0c-0.9-1-2.1-2.3-2.9-3.2v0c-0.2-0.3-0.2-0.6,0-0.9   c2.5-3.3,2.5-3.3,2.9-2.8c1,1.1,2.1,2.1,3,3.3C42.5,73.7,42.7,74.1,42.4,74.5z M47.1,69.7l-1.7,1.6c-1.2,1.2-1.3,1.2-1.6,0.9   c-0.9-1-2.1-2.2-2.9-3.2c-0.2-0.3-0.2-0.6,0-0.8l0.9-0.8c2.1-2,2.1-2,2.6-1.6c1,1.1,2.1,2.1,3,3.3C47.4,69.2,47.4,69.5,47.1,69.7z    M52.4,65.6l-1.3,1c-2,1.5-2,1.5-2.4,1.1c-0.9-1-2.1-2.2-2.9-3.2c-0.2-0.3-0.2-0.6,0.1-0.8l1.5-1.2c1.7-1.3,1.7-1.3,2.1-0.9   c1,1.1,2.1,2.1,3,3.3C52.7,65,52.7,65.3,52.4,65.6z M57.9,61.8c-1,0.7-1.9,1.5-3,2c0,0-0.4,0.2-0.8-0.1c-0.9-1-2.1-2.2-2.9-3.2   c-0.2-0.2-0.2-0.5,0.1-0.7c3.3-2.2,3.3-2.2,3.8-1.8c1,1.1,2.1,2.1,3,3.3C58,61.2,58.3,61.5,57.9,61.8z M63.2,58.4l-1.8,1.1   c-1.5,0.9-1.5,1-1.9,0.6c-0.9-1-2.1-2.2-2.9-3.2c-0.2-0.2-0.2-0.5,0.1-0.7l1-0.7c2.2-1.4,2.2-1.4,2.6-1c1,1.1,2.1,2.1,3,3.3   C63.3,57.8,63.6,58.1,63.2,58.4z M68.1,55.1l-1.2,0.8c-1.7,1.2-1.7,1.2-2.1,0.8c-0.9-1-2.1-2.2-2.9-3.2c-0.2-0.2-0.2-0.5,0.1-0.7   l1.3-0.9c1.5-1.1,1.5-1.1,1.9-0.7c1,1.1,2.1,2.1,3,3.2C68.2,54.5,68.4,54.8,68.1,55.1z M73.4,50.7c-3.5,3.2-3.5,3.2-4,2.8   c-0.9-1-2.1-2.2-3-3.2v0c-0.2-0.3-0.2-0.6,0.1-0.8c0.9-0.8,2.2-1.8,3-2.7c0.1-0.1,0.1-0.1,0.2-0.2c0,0,0.4-0.3,0.8,0   c1,1.1,2.1,2,3,3.2C73.6,50,73.7,50.3,73.4,50.7z M78.3,45.2c-0.5,0.6-1.1,1.4-1.6,2c-1.1,1.3-1.2,1.4-1.6,1c-0.9-1-2.1-2.2-3-3.2   c-0.2-0.2-0.2-0.6,0.1-0.9l0.8-1c2-2.4,2-2.4,2.3-2.1c1,1.1,2.1,2,3,3.2C78.4,44.5,78.5,44.8,78.3,45.2z M82,39.5l-0.8,1.3   c-1.3,2.1-1.3,2.1-1.8,1.8c-0.9-1-2.1-2.2-3-3.2c-0.2-0.2-0.2-0.6,0-0.9c0.3-0.5,0.7-1.1,1-1.7c1-1.8,1-1.8,1.4-1.4   c1,1.1,2.1,2.1,3,3.2C82.1,38.8,82.2,39.1,82,39.5z M84.5,34.1c-0.3,0.9-1,2.5-1.2,2.8c-0.1,0.1-0.3,0.3-0.6,0   c-0.9-1-2.1-2.2-3-3.2v0c-0.2-0.2-0.3-0.6-0.1-0.9c0.4-0.8,0.8-1.9,1.1-2.7c0,0,0-0.1,0.1-0.1c0,0,0.2-0.3,0.5,0   C84.7,33.7,84.7,33.7,84.5,34.1z"/></g></g><g id="SvgjsG1744" featurekey="1RRcwp-0" transform="matrix(3.0448351346358415,0,0,3.0448351346358415,100.92951190518295,13.801482368618863)" fill="#fff"><path d="M8.14 20.22 c-1 0 -1.98 -0.2 -2.9 -0.58 c-0.88 -0.38 -1.68 -0.92 -2.36 -1.6 c-0.7 -0.68 -1.24 -1.48 -1.6 -2.38 c-0.4 -0.92 -0.6 -1.88 -0.6 -2.9 c0 -4.1 3.36 -7.44 7.46 -7.44 c1.16 0 2.32 0.28 3.34 0.8 c1.02 0.5 1.94 1.28 2.62 2.2 l0.32 0.4 l-2.14 1.58 l-0.3 -0.4 c-0.9 -1.22 -2.3 -1.92 -3.84 -1.92 c-2.64 0 -4.8 2.14 -4.8 4.78 c0 2.66 2.16 4.82 4.8 4.82 c1.52 0 2.92 -0.7 3.84 -1.92 l0.3 -0.38 l2.12 1.56 l-0.32 0.4 c-0.7 0.94 -1.58 1.68 -2.62 2.2 c-1.02 0.52 -2.16 0.78 -3.32 0.78 z M19.52 20 l-2.6 0 l0 -9.16 l2.6 0 l0 9.16 z M18.22 9.74 c-0.86 0 -1.56 -0.7 -1.56 -1.54 c0 -0.42 0.16 -0.8 0.46 -1.08 c0.3 -0.3 0.68 -0.46 1.1 -0.46 c0.84 0 1.54 0.7 1.54 1.54 s-0.7 1.54 -1.54 1.54 z M31.42 20 l-2.52 0 l0 -4.9 c0 -1.08 -0.86 -1.92 -1.94 -1.92 c-1.04 0 -1.94 0.86 -1.94 1.92 l0 4.9 l-2.5 0 l0 -9.16 l2.5 0 l0 0.66 c0.62 -0.62 1.28 -0.84 1.94 -0.84 c1.2 0 2.32 0.46 3.16 1.28 c0.84 0.86 1.3 1.98 1.3 3.16 l0 4.9 z M37.540000000000006 20.22 l-0.02 0 c-0.58 0 -1.18 -0.14 -1.74 -0.4 c-0.52 -0.22 -1 -0.58 -1.44 -1.04 c-0.7 -0.76 -1.12 -1.76 -1.22 -2.8 c-0.02 -0.18 -0.04 -0.36 -0.04 -0.56 c0 -0.4 0.06 -0.82 0.16 -1.24 c0.18 -0.8 0.56 -1.54 1.1 -2.1 c0.4 -0.44 0.86 -0.78 1.44 -1.06 c0.54 -0.26 1.14 -0.38 1.76 -0.38 c0.64 0 1.22 0.12 1.76 0.38 c0.6 0.28 1.08 0.64 1.44 1.06 c0.52 0.56 0.92 1.28 1.12 2.1 c0.1 0.38 0.14 0.78 0.14 1.24 l0 0.46 l-6.72 0 l0.02 0.14 c0.26 1.24 1.2 2.14 2.24 2.14 l0.02 0 c0.58 -0.04 1.22 -0.4 1.6 -0.72 l0.22 -0.18 l1.66 1.44 l-0.3 0.26 c-0.22 0.2 -0.5 0.44 -0.8 0.6 l-0.02 0 c-0.72 0.42 -1.5 0.64 -2.38 0.66 z M37.540000000000006 12.719999999999999 c-0.78 0 -1.56 0.54 -1.98 1.38 l-0.08 0.16 l4.14 0 l-0.08 -0.16 c-0.46 -0.86 -1.22 -1.38 -2 -1.38 z M46.260000000000005 20 l-2.52 0 l0 -9.16 l2.52 0 l0 0.74 c0.72 -0.72 1.8 -0.96 2.52 -0.96 l0.6 0 l-0.6 2.5 l-0.38 0 c-1.18 0 -2.14 0.92 -2.14 2.02 l0 4.86 z M54.8 20.18 c-1.26 0 -2.46 -0.48 -3.38 -1.38 c-0.9 -0.92 -1.4 -2.12 -1.4 -3.38 s0.5 -2.46 1.4 -3.38 c0.9 -0.9 2.1 -1.38 3.38 -1.38 c0.84 0 1.6 0.3 2.26 0.9 l0.1 0.08 l0 -0.8 l2.42 0 l0 9.16 l-2.42 0 l0 -0.72 l-0.1 0.1 c-0.72 0.7 -1.54 0.8 -2.26 0.8 z M54.8 13 c-1.28 0 -2.36 1.12 -2.36 2.42 c0 1.32 1.08 2.42 2.36 2.42 s2.36 -1.1 2.36 -2.42 c0 -1.3 -1.08 -2.42 -2.36 -2.42 z M77.11999999999999 20 l-2.5 0 l0 -4.9 c0 -1.06 -0.9 -2 -1.94 -2 c-1.08 0 -1.96 0.92 -1.96 2 l0 4.9 l-2.5 0 l0 -4.9 c0 -1.08 -0.88 -2 -1.94 -2 s-1.94 0.94 -1.94 2 l0 4.9 l-2.5 0 l0 -9.16 l2.5 0 l0 0.66 c0.62 -0.62 1.28 -0.84 1.94 -0.84 c0.58 0 1.16 0.12 1.72 0.36 c0.52 0.24 1 0.58 1.44 1 c0 0.02 0.02 0.02 0.04 0.04 l0.04 -0.04 c0.42 -0.42 0.9 -0.76 1.44 -1 c0.56 -0.24 1.14 -0.36 1.72 -0.36 c1.18 0 2.3 0.46 3.14 1.28 c0.84 0.86 1.3 1.98 1.3 3.16 l0 4.9 z M83.47999999999999 20.18 c-1.26 0 -2.46 -0.48 -3.38 -1.38 c-0.9 -0.92 -1.4 -2.12 -1.4 -3.38 s0.5 -2.46 1.4 -3.38 c0.9 -0.9 2.1 -1.38 3.38 -1.38 c0.84 0 1.6 0.3 2.26 0.9 l0.1 0.08 l0 -0.8 l2.42 0 l0 9.16 l-2.42 0 l0 -0.72 l-0.1 0.1 c-0.72 0.7 -1.54 0.8 -2.26 0.8 z M83.47999999999999 13 c-1.28 0 -2.36 1.12 -2.36 2.42 c0 1.32 1.08 2.42 2.36 2.42 s2.36 -1.1 2.36 -2.42 c0 -1.3 -1.08 -2.42 -2.36 -2.42 z"/></g></svg>